<svg width="75" height="75" viewBox="0 0 75 75" fill="none" xmlns="http://www.w3.org/2000/svg">
<g clip-path="url(#clip0_28_12)">
<rect width="75" height="75" rx="37.5" fill="url(#paint0_linear_28_12)"/>
<path d="M37.5 75C42.4246 75 47.3009 74.03 51.8506 72.1455C56.4003 70.2609 60.5343 67.4987 64.0165 64.0165C67.4987 60.5343 70.2609 56.4003 72.1455 51.8506C74.03 47.3009 75 42.4246 75 37.5C75 32.5754 74.03 27.6991 72.1455 23.1494C70.2609 18.5997 67.4987 14.4657 64.0165 10.9835C60.5343 7.5013 56.4003 4.73907 51.8506 2.85452C47.3009 0.969965 42.4246 -7.33818e-08 37.5 0C27.5544 1.48201e-07 18.0161 3.95088 10.9835 10.9835C3.95088 18.0161 0 27.5544 0 37.5C0 47.4456 3.95088 56.9839 10.9835 64.0165C18.0161 71.0491 27.5544 75 37.5 75ZM37.5 75C44.8366 75.0075 52.0124 72.8509 58.1292 68.8C57.6457 64.7712 55.7045 61.0586 52.6717 58.3628C49.6389 55.667 45.7244 54.1744 41.6667 54.1667H33.3333C29.2756 54.1744 25.361 55.667 22.3283 58.3628C19.2955 61.0586 17.3542 64.7712 16.8708 68.8C22.9876 72.8509 30.1634 75.0075 37.5 75ZM50 29.1667C50 32.4819 48.683 35.6613 46.3388 38.0055C43.9946 40.3497 40.8152 41.6667 37.5 41.6667C34.1848 41.6667 31.0054 40.3497 28.6612 38.0055C26.317 35.6613 25 32.4819 25 29.1667C25 25.8515 26.317 22.672 28.6612 20.3278C31.0054 17.9836 34.1848 16.6667 37.5 16.6667C40.8152 16.6667 43.9946 17.9836 46.3388 20.3278C48.683 22.672 50 25.8515 50 29.1667Z" stroke="white" stroke-width="2" stroke-linecap="round" stroke-linejoin="round"/>
</g>
<defs>
<linearGradient id="paint0_linear_28_12" x1="37.5" y1="0" x2="37.5" y2="75" gradientUnits="userSpaceOnUse">
<stop stop-color="#730D0D"/>
<stop offset="1" stop-color="#5B0B0B"/>
</linearGradient>
<clipPath id="clip0_28_12">
<rect width="75" height="75" rx="37.5" fill="white"/>
</clipPath>
</defs>
</svg>
